<?xml version="1.0" encoding="utf-8"?><!DOCTYPE svg PUBLIC "-//W3C//DTD SVG 1.1//EN" "http://www.w3.org/Graphics/SVG/1.1/DTD/svg11.dtd"><svg xmlns="http://www.w3.org/2000/svg" xmlns:xlink="http://www.w3.org/1999/xlink" width="50" height="50" viewBox="0 0 50 50"><defs><path id="a" d="M0 4.5h48.5v43.3H0z"/></defs><clipPath id="b"><use xlink:href="#a" overflow="visible"/></clipPath><path clip-path="url(#b)" fill="#fff" d="M48.27 44.61c0 .97-.76 1.73-1.76 1.73-.98 0-1.77-.76-1.77-1.73 0-.95.78-1.71 1.77-1.71 1 0 1.76.76 1.76 1.71m-3.08 0c0 .76.56 1.37 1.34 1.37.75 0 1.31-.6 1.31-1.36 0-.76-.55-1.38-1.32-1.38s-1.33.62-1.33 1.37m1.06.9h-.4V43.8c.16-.03.38-.05.66-.05.32 0 .47.05.6.12.09.07.17.21.17.38 0 .19-.14.33-.35.4v.02c.17.06.26.19.31.42.05.26.08.36.13.43h-.43c-.05-.06-.08-.22-.14-.42-.03-.19-.14-.27-.36-.27h-.19v.68zm.01-.97h.18c.22 0 .4-.07.4-.25 0-.16-.12-.26-.37-.26-.1 0-.18.01-.22.02v.49zM35.17 4.5H13.21L.24 19.8l4.57-.32v16.56l-3.49.51s-1.68.31-1.26 2.1c.37 1.3 1.69 1.3 1.69 1.3l3.05-.5v4.4l21.85 3.95 17.17-3.92-.02-24.05 4.7-.43L35.17 4.5zm-4.44 18.21l4.76-.45v6.3l-4.8.63.04-6.48zM6.41 42.65v-3.46l9.46-1.56s1.63.01 1.5-1.82c-.12-1.64-1.85-1.35-1.85-1.35l-9.11 1.36V19.03l9.63-11.37 10.62 11.88v26.78L6.41 42.65zm24.28-4.93l.02-6.5 4.78-.64.03 6.3-4.83.84zm10.71-1.9l-3.96.69v-6.23l3.96-.57v6.11zm-3.95-7.51v-6.25l3.96-.38.01 6.11-3.97.52zM20.48 20.01c-1.11-1.3-2.64-2.12-4.32-2.12-.09 0-.18 0-.27.01-1.67.09-3.13.98-4.14 2.3-1.02 1.33-1.61 3.09-1.61 5.02 0 .16 0 .33.01.49.1 1.98.83 3.75 1.94 5.05 1.11 1.29 2.64 2.12 4.32 2.12.09 0 .18 0 .27-.01 1.67-.08 3.13-.98 4.14-2.3 1.02-1.33 1.62-3.09 1.62-5.02 0-.16-.01-.33-.01-.49-.12-1.97-.84-3.75-1.95-5.05m-.64 9.81c-.84 1.09-1.97 1.76-3.23 1.82h-.2c-1.27 0-2.46-.62-3.39-1.69-.92-1.07-1.56-2.59-1.64-4.31-.01-.14-.01-.28-.01-.42 0-1.67.52-3.18 1.36-4.27.84-1.09 1.97-1.76 3.23-1.82h.2c1.27 0 2.46.62 3.39 1.7.93 1.07 1.56 2.59 1.64 4.31.01.14.01.28.01.42 0 1.66-.53 3.17-1.36 4.26M14.16 25.51c-.11-2.15.58-4 1.64-4.71-1.8.13-3.15 2.26-3.02 4.8.14 2.56 1.72 4.56 3.54 4.47v-.03c-1.14-.57-2.05-2.36-2.16-4.53"/></svg>